<svg xmlns="http://www.w3.org/2000/svg" viewBox="0 0 115.07 30"><defs><style>.cls-1{fill:#fff;}</style></defs><title>Recurso 4</title><g id="Capa_2" data-name="Capa 2"><g id="Capa_1-2" data-name="Capa 1"><path class="cls-1" d="M21.6,9.18a3.59,3.59,0,0,1-5.48-3,3.33,3.33,0,0,1,.09-.78,3.59,3.59,0,0,1-3-3.53A3.49,3.49,0,0,1,13.58.34,11.08,11.08,0,0,0,10.86,0,10.87,10.87,0,0,0,0,10.86C0,18.3,9.72,29.21,10.14,29.68a1,1,0,0,0,1.45,0C12,29.21,21.73,18.3,21.73,10.86A11.66,11.66,0,0,0,21.6,9.18Zm-7.78,6.28-.09-3.17a1.13,1.13,0,0,1-.92,0L12.71,16c-.13,0-.25.09-.38.12a5.24,5.24,0,0,1-1.05.18l-.11-3.17h-.91l-.11,3.14a2.2,2.2,0,0,1-.37-.06,4.91,4.91,0,0,1-1.21-.4l-.11-3.88H7.55l-.09,3.2c-.12-.1-.25-.21-.36-.32a5.46,5.46,0,1,1,6.72.64Z"/><path class="cls-1" d="M8.61,8.78a.15.15,0,0,0-.15.15v1.5h-.3V8.93A.15.15,0,0,0,8,8.78a.14.14,0,0,0-.15.15v1.5h-.3V8.93a.15.15,0,0,0-.16-.15.15.15,0,0,0-.15.15V11a.81.81,0,0,0,.08.34l.13.25H8.55l.13-.25A.81.81,0,0,0,8.76,11V8.93A.15.15,0,0,0,8.61,8.78Z"/><path class="cls-1" d="M11,8.78c-.31,0-.56.21-.77.62a4.86,4.86,0,0,0-.38,1.23,12.75,12.75,0,0,0-.21,1.75.15.15,0,0,0,.12.15l.48.12v.19h.91V8.93A.15.15,0,0,0,11,8.78Z"/><ellipse class="cls-1" cx="13.27" cy="10.43" rx="1.2" ry="1.65"/><path class="cls-1" d="M29.69,19.33a23.34,23.34,0,0,1,.48-2.53c.09-.4.18-.8.28-1.18a2.67,2.67,0,0,1-.79-.06l-.32-.18a.67.67,0,0,1-.31-.74,1.56,1.56,0,0,1,.1-.24,1.44,1.44,0,0,1,.52-.6A8,8,0,0,1,31,13.69c.16-.55.32-1.08.48-1.58.11-.29.25-.62.42-1a5.86,5.86,0,0,1-1.57,0l-.44-.18c-.39-.19-.53-.43-.43-.73a1.34,1.34,0,0,1,.15-.24,1.66,1.66,0,0,1,.7-.6A8.68,8.68,0,0,1,32,9.28a19,19,0,0,0,2.6-.14L36.08,9a10.29,10.29,0,0,1,3.2-.11l.32.08c.11,0,.15.11.14.26s-.22.23-.57.44a18.07,18.07,0,0,1-2.11.73c-1,.21-2.13.4-3.46.57a22.36,22.36,0,0,1-.49,2.58.15.15,0,0,0,0,.07l.41-.05a1.46,1.46,0,0,0,.34,0,5.69,5.69,0,0,1,2.32-.06l.24.09c.07,0,.1.11.09.26s-.16.23-.41.43a9,9,0,0,1-1.52.69c-.53.15-1.13.28-1.8.4l-.2,1q-.57,5.15-1.82,5.42C29.9,21.91,29.55,21.11,29.69,19.33Z"/><path class="cls-1" d="M40,19.72a5.69,5.69,0,0,1-1.82-.16c-1.39-.33-1.89-1.38-1.49-3.16s1.88-2.91,4.46-3.43h0a5.92,5.92,0,0,1,2.13.06c1.39.3,1.92,1.34,1.57,3.12s-1.8,3-4.36,3.56A4.82,4.82,0,0,1,40,19.72Zm.67-1.36a2.48,2.48,0,0,0,2-2c.16-1-.08-1.59-.73-1.76a2.18,2.18,0,0,0-1,0h0a2.45,2.45,0,0,0-2.06,2c-.19,1,0,1.6.68,1.79a2.12,2.12,0,0,0,.85.09Z"/><path class="cls-1" d="M48.66,19.72a5.72,5.72,0,0,1-1.82-.16c-1.39-.33-1.89-1.38-1.49-3.16s1.89-2.91,4.46-3.43h0A5.91,5.91,0,0,1,52,13c1.4.3,1.92,1.34,1.58,3.12s-1.8,3-4.36,3.56A5,5,0,0,1,48.66,19.72Zm.67-1.36a2.49,2.49,0,0,0,2-2c.16-1-.09-1.59-.73-1.76a2.22,2.22,0,0,0-1,0h0a2.45,2.45,0,0,0-2.07,2c-.18,1,.05,1.6.69,1.79a2.05,2.05,0,0,0,.84.09Z"/><path class="cls-1" d="M63.21,8.25a.73.73,0,0,1,.44.67V9q0,.21-2.14,7l0,.28c0,.39.28.61.77.67q1.11.22,1.11.45s0,0,0,.1c-.06.49-.85.78-2.4.88-.91-.26-1.42-.54-1.54-.84-1.85,1-3.22,1.48-4.1,1.39l-.31,0a1.38,1.38,0,0,1-1.27-1.25,1.86,1.86,0,0,1,0-.46q.19-1.92,3.58-3.63A5.92,5.92,0,0,1,60.21,13l.3-.09Q61.2,8.39,63.21,8.25Zm-6.78,8.41.21,0A5.18,5.18,0,0,0,59.3,16v-.09A12.7,12.7,0,0,1,60,14.4a4.83,4.83,0,0,0-2.16.69,2.2,2.2,0,0,0-.92.78C56.79,15.94,56.62,16.21,56.43,16.66Z"/><path class="cls-1" d="M78.07,9c.52.15.77.39.77.74.06,0,.1.16.12.47s-.67,1.38-2,2.87c0,.06-1.79,1.88-5.35,5.43h0a11.81,11.81,0,0,1,1.74-.19h.82a25.71,25.71,0,0,1,3.07.23,9,9,0,0,0,3.63-.27c.37.09.55.24.55.47v.11A4.75,4.75,0,0,1,79.74,20a10.38,10.38,0,0,1-2.91.61h-.08a23.07,23.07,0,0,1-3.83.19,14,14,0,0,0-5,.78,1.84,1.84,0,0,1-.39,0h-.08a1,1,0,0,1-1-.85V20.5a2.87,2.87,0,0,1,1.36-2.37,86.52,86.52,0,0,1,7-6.44,6,6,0,0,0,.85-.7,15.87,15.87,0,0,1-3.06.39h-.78c-1,0-1.66-.3-1.94-.9a.63.63,0,0,1-.08-.26c0-.23.19-.52.58-.86l.28-.07c.78.05,1.37.07,1.74.07a28.3,28.3,0,0,1,4.08-.27Z"/><path class="cls-1" d="M81.83,14.11h0c.18,0,.3.19.34.58a2.63,2.63,0,0,1,0,.38,9,9,0,0,1-1.33,3.64l-.42,1a1.29,1.29,0,0,1,0,.25v0c0,.18-.16.28-.46.28-.45,0-.73-.49-.85-1.45A5.74,5.74,0,0,1,80.36,16a10.11,10.11,0,0,0,1.27-1.79A.32.32,0,0,1,81.83,14.11Zm2-4.2h.23a.24.24,0,0,1,.14.21v0a11.26,11.26,0,0,1-1.61,2.41c-.25.31-.44.46-.6.46,0,0-.11.05-.34.05s-.51-.2-.51-.44v-.37A2.77,2.77,0,0,1,82,10.87a8.36,8.36,0,0,1,1.52-.82A.75.75,0,0,0,83.83,9.91Z"/><path class="cls-1" d="M83.39,19.61c-.32-.09-.47-.25-.46-.47v-.25c0-.32.12-1.26.36-2.85a16.3,16.3,0,0,0,.1-1.83l0-.55a2.5,2.5,0,0,1-.12-.47v-.06s.11-.13.32-.3a1.59,1.59,0,0,1,1.1.7,2.41,2.41,0,0,1,.8,2,11.62,11.62,0,0,1,1.62-1.74,4.47,4.47,0,0,1,2-1.07s.16-.09.5-.11a2.28,2.28,0,0,1,1.25.71,2.46,2.46,0,0,1,.16,1,11.53,11.53,0,0,1-.86,2.9v.38c0,.23.23.47.7.73l.09.12v.06q0,.29-.72.39a1.45,1.45,0,0,1-.37,0,1.33,1.33,0,0,1-1.35-.71,3,3,0,0,1-.36-.88A6.18,6.18,0,0,1,88.66,15h0a18.88,18.88,0,0,0-2.86,2,6.65,6.65,0,0,0-1.41,1.92c-.34.46-.57.7-.66.7A1,1,0,0,1,83.39,19.61Z"/><path class="cls-1" d="M100.67,8.25a.73.73,0,0,1,.44.67V9q0,.21-2.14,7l0,.28c0,.39.28.61.77.67q1.11.22,1.11.45s0,0,0,.1c-.06.49-.85.78-2.4.88-.91-.26-1.42-.54-1.54-.84-1.85,1-3.22,1.48-4.1,1.39l-.31,0a1.38,1.38,0,0,1-1.27-1.25,1.86,1.86,0,0,1,0-.46q.19-1.92,3.58-3.63A5.92,5.92,0,0,1,97.67,13l.3-.09Q98.66,8.39,100.67,8.25Zm-6.78,8.41.21,0A5.18,5.18,0,0,0,96.76,16v-.09a12.7,12.7,0,0,1,.71-1.46,4.83,4.83,0,0,0-2.16.69,2.2,2.2,0,0,0-.92.78C94.25,15.94,94.08,16.21,93.89,16.66Z"/><path class="cls-1" d="M105.09,13c1.38,0,2.14.17,2.27.56a2.05,2.05,0,0,1,0,1.25,3.63,3.63,0,0,1-1,1.47,6.45,6.45,0,0,1-3.25,1.21q0,1.11,1.89.57c1.23-.36,2-.58,2.45-.67s.56,0,.49.36-.7.8-1.91,1.41a5.44,5.44,0,0,1-3.88.43c-1.39-.33-1.88-1.38-1.49-3.16S102.52,13.49,105.09,13ZM103,16.19l.1.26c2-.75,3-1.35,2.74-1.81s-.68-.51-1.39-.17A2.67,2.67,0,0,0,103,16.19Z"/><path class="cls-1" d="M107.89,20.17c-.32-.07-.48-.22-.49-.44v-.25A27.65,27.65,0,0,1,108,16c0-.38,0-.78.08-1.19a8.78,8.78,0,0,0,0-1,.83.83,0,0,0-.14-.48.43.43,0,0,1-.14-.22v-.06s.1-.13.3-.32a2.73,2.73,0,0,1,1.42.73,2.19,2.19,0,0,1,.65,1.49,7,7,0,0,1,2.39-2.17c1.15-.7,1.92-.84,2.32-.4s-.13,1.09-1.58,2a7,7,0,0,0-2.81,2.55l-1.21,2.44c-.31.49-.52.73-.63.74Z"/></g></g></svg>