<svg xmlns="http://www.w3.org/2000/svg" viewBox="0 0 428.73 80"><defs><style>.cls-1{fill:#ff64b6;}</style></defs><title>Recurso 3</title><g id="Capa_2" data-name="Capa 2"><g id="Capa_1-2" data-name="Capa 1"><path class="cls-1" d="M112.5,56q.44-3.43,1.79-9.36c.34-1.51.69-3,1.06-4.39a8.63,8.63,0,0,1-2.93-.23,11.58,11.58,0,0,1-1.18-.66,2.39,2.39,0,0,1-1.15-2.73,4.07,4.07,0,0,1,.38-.89,5.42,5.42,0,0,1,1.89-2.21,28.58,28.58,0,0,1,4.86-.41q.89-3.1,1.78-5.86c.4-1.07.92-2.28,1.55-3.64a21.77,21.77,0,0,1-5.8,0L113.11,25c-1.44-.71-2-1.61-1.58-2.7a3.59,3.59,0,0,1,.54-.89,6.17,6.17,0,0,1,2.62-2.24,32.42,32.42,0,0,1,6.32-.32,71.93,71.93,0,0,0,9.6-.52c3.59-.4,5.45-.62,5.56-.66q8.73-1.17,11.86-.4l1.21.29c.38.09.55.41.49.95-.12.32-.82.87-2.1,1.63a62.69,62.69,0,0,1-7.81,2.7Q134.36,24,127,24.94a79.29,79.29,0,0,1-1.84,9.53,1.37,1.37,0,0,0-.08.26l1.52-.17a9.93,9.93,0,0,0,1.26-.14c4.19-.69,7-.77,8.56-.23l.89.34c.27.1.38.41.35.95-.08.31-.59.84-1.53,1.61a35.62,35.62,0,0,1-5.63,2.55q-3,.81-6.66,1.47l-.72,3.7Q121,63.89,116.37,64.9C113.29,65.58,112,62.63,112.5,56Z"/><path class="cls-1" d="M150.85,57.48a21.25,21.25,0,0,1-6.75-.6Q136.38,55,138.58,45.2T155.1,32.49h.14a22.26,22.26,0,0,1,7.9.23q7.76,1.64,5.83,11.53t-16.14,13.2Q151.76,57.51,150.85,57.48Zm2.47-5.06q6.57-1.86,7.47-7.48t-2.7-6.53a8.25,8.25,0,0,0-3.65-.15h-.06c-4.42,1.1-7,3.5-7.65,7.23s.16,5.93,2.54,6.62a8.17,8.17,0,0,0,3.13.34Z"/><path class="cls-1" d="M182.79,57.48a21.2,21.2,0,0,1-6.75-.6Q168.32,55,170.52,45.2T187,32.49h.14a22.26,22.26,0,0,1,7.9.23q7.75,1.64,5.83,11.53t-16.14,13.2Q183.71,57.51,182.79,57.48Zm2.47-5.06q6.57-1.86,7.47-7.48T190,38.41a8.25,8.25,0,0,0-3.65-.15h-.06c-4.42,1.1-7,3.5-7.65,7.23s.16,5.93,2.54,6.62a8.17,8.17,0,0,0,3.13.34Z"/><path class="cls-1" d="M236.67,15a2.69,2.69,0,0,1,1.61,2.47l0,.23q-.09.78-7.93,26l-.11,1c.07,1.43,1,2.27,2.87,2.5,2.72.55,4.09,1.11,4.11,1.66.07,0,.1.15.08.38q-.28,2.7-8.87,3.24c-3.37-.95-5.27-2-5.69-3.1Q212.41,55,207.52,54.52l-1.15-.11q-3.83-.37-4.71-4.63a6.42,6.42,0,0,1-.06-1.72q.69-7.06,13.24-13.44,6.75-2.67,10.71-2.07a8.21,8.21,0,0,1,1.1-.32Q229.2,15.49,236.67,15ZM211.54,46.13l.8.09q3.74.38,9.85-2.7l0-.34a48.68,48.68,0,0,1,2.62-5.4,17.92,17.92,0,0,0-8,2.55,8.35,8.35,0,0,0-3.42,2.88C212.9,43.49,212.27,44.47,211.54,46.13Z"/><path class="cls-1" d="M291.68,17.83c1.92.54,2.88,1.44,2.88,2.72.19,0,.33.58.44,1.74q0,2.34-7.47,10.63,0,.38-19.82,20.13h.16a44.91,44.91,0,0,1,6.46-.72h3a92.62,92.62,0,0,1,11.37.86,33.73,33.73,0,0,0,13.45-1c1.35.31,2,.89,2,1.73v.42a18.16,18.16,0,0,1-6.33,4q-2.47,1.28-10.79,2.29h-.29q-3.29.69-14.19.7a52.1,52.1,0,0,0-18.41,2.88,7.32,7.32,0,0,1-1.43.15h-.28q-2.91,0-3.89-3.16v-.88q0-5.19,5-8.77a320.68,320.68,0,0,1,25.83-23.86,20.86,20.86,0,0,0,3.17-2.6,58.62,58.62,0,0,1-11.36,1.46h-2.88c-3.74,0-6.13-1.11-7.19-3.32a2.27,2.27,0,0,1-.28-1c0-.85.71-1.9,2.15-3.16l1-.29c2.92.19,5.08.29,6.46.29a102.76,102.76,0,0,1,15.12-1Z"/><path class="cls-1" d="M305.63,36.71h.17c.67,0,1.1.71,1.27,2.13a9.23,9.23,0,0,1,.17,1.44q0,4.36-4.94,13.47l-1.52,3.64a6.09,6.09,0,0,1,.08.92v.09c0,.69-.56,1-1.69,1q-2.51,0-3.16-5.37,0-4,4.16-10.45,4.38-5.55,4.69-6.64A1.19,1.19,0,0,1,305.63,36.71ZM313,21.15h.87a.86.86,0,0,1,.51.77V22q-.09,1.17-6,8.93c-.9,1.13-1.64,1.7-2.21,1.7,0,.11-.43.17-1.27.17-1.24-.21-1.86-.75-1.86-1.61V29.82c0-1.07,1-2.78,3.07-5.11a29,29,0,0,1,5.6-3.05A2.65,2.65,0,0,0,313,21.15Z"/><path class="cls-1" d="M311.37,57.08c-1.15-.35-1.71-.93-1.69-1.75l0-.92q0-1.75,1.35-10.54a66.34,66.34,0,0,0,.37-6.78l.06-2.07a9,9,0,0,1-.43-1.72v-.23c0-.12.39-.49,1.17-1.12q3.07.77,4.08,2.61a8.85,8.85,0,0,1,3,7.3,42.26,42.26,0,0,1,6-6.44,16.59,16.59,0,0,1,7.56-4c0-.21.61-.36,1.84-.43q2,.2,4.65,2.64a9.15,9.15,0,0,1,.6,3.79c0,1.72-1.11,5.31-3.21,10.74l0,1.38q0,1.29,2.58,2.7l.35.46V53q0,1-2.67,1.44a6.66,6.66,0,0,1-1.38.08c-2.57-.05-4.23-.94-5-2.64a11,11,0,0,1-1.32-3.25,22.92,22.92,0,0,1,1.66-8.7h-.11q-.84,0-10.6,7.27a25.53,25.53,0,0,0-5.2,7.12c-1.28,1.73-2.1,2.59-2.47,2.59A3,3,0,0,1,311.37,57.08Z"/><path class="cls-1" d="M375.39,15A2.69,2.69,0,0,1,377,17.47l0,.23q-.08.78-7.92,26l-.12,1c.08,1.43,1,2.27,2.87,2.5,2.72.55,4.09,1.11,4.11,1.66.08,0,.11.15.09.38q-.28,2.7-8.88,3.24c-3.37-.95-5.26-2-5.68-3.1q-10.32,5.65-15.2,5.14l-1.15-.11q-3.81-.37-4.71-4.63a6.81,6.81,0,0,1-.05-1.72Q341,41,353.57,34.62q6.75-2.67,10.71-2.07a7.72,7.72,0,0,1,1.09-.32Q367.92,15.49,375.39,15ZM350.26,46.13l.81.09q3.74.38,9.85-2.7l0-.34a47.74,47.74,0,0,1,2.61-5.4,17.92,17.92,0,0,0-8,2.55,8.22,8.22,0,0,0-3.42,2.88C351.62,43.49,351,44.47,350.26,46.13Z"/><path class="cls-1" d="M391.77,32.49c5.11-.07,7.91.61,8.4,2.07a7.44,7.44,0,0,1,0,4.62,13.58,13.58,0,0,1-3.84,5.43c-2.06,2-6.08,3.49-12,4.48.07,2.76,2.41,3.47,7,2.13s7.61-2.16,9.08-2.47,2.07.14,1.82,1.33-2.6,2.94-7.05,5.23a20.16,20.16,0,0,1-14.39,1.58Q373,55,375.25,45.2T391.77,32.49Zm-7.84,11.92.37,1q11.34-4.14,10.15-6.68c-.79-1.69-2.51-1.91-5.14-.66A10.11,10.11,0,0,0,383.93,44.41Z"/><path class="cls-1" d="M402.11,59.15c-1.17-.27-1.77-.82-1.81-1.64l0-.92q-.06-1.76,2.41-13c.1-1.4.2-2.86.3-4.4a31.43,31.43,0,0,0,.1-3.54,2.79,2.79,0,0,0-.53-1.77,1.69,1.69,0,0,1-.5-.83v-.23c0-.1.37-.49,1.12-1.18a10.12,10.12,0,0,1,5.26,2.7,8.29,8.29,0,0,1,2.41,5.51c1.63-2.71,4.57-5.39,8.83-8s7.12-3.12,8.59-1.49-.49,4-5.86,7.24-8.83,6.35-10.38,9.47l-4.49,9c-1.16,1.8-1.94,2.71-2.32,2.73C403.77,59,402.74,59.07,402.11,59.15Z"/><path class="cls-1" d="M57.33,0h-32L26,3a11.19,11.19,0,0,1,.26,2.38,11,11,0,0,1-9.1,10.84l-2.53.45.58,2.5a10.65,10.65,0,0,1,.31,2.52,11,11,0,0,1-11,11,10.47,10.47,0,0,1-1.68-.13L0,32.11V57.33A22.7,22.7,0,0,0,22.67,80H57.33A22.7,22.7,0,0,0,80,57.33V22.67A22.7,22.7,0,0,0,57.33,0ZM75.15,57.33A17.84,17.84,0,0,1,57.33,75.15H22.67A17.84,17.84,0,0,1,4.85,57.33V37.52a15.89,15.89,0,0,0,15.5-15.87c0-.42,0-.85-.06-1.28a15.82,15.82,0,0,0,10.8-15c0-.16,0-.33,0-.49H57.33A17.84,17.84,0,0,1,75.15,22.67Z"/><path class="cls-1" d="M40,20.15A19.85,19.85,0,1,0,59.85,40,19.87,19.87,0,0,0,40,20.15Zm9.19,31.68L49,45a3.72,3.72,0,0,1-2.89,0l-.25,8.79a14.68,14.68,0,0,1-4.65,1.13L41,47.67H38.09l-.24,7.16a14.61,14.61,0,0,1-5.14-1.73l-.25-9.21H29.6l-.18,6.74a15,15,0,1,1,19.77,1.2Z"/><path class="cls-1" d="M32.92,34a.48.48,0,0,0-.48.47v4.72H31.5V34.45a.47.47,0,1,0-.94,0v4.72h-.95V34.45a.47.47,0,1,0-.94,0v6.63a2.3,2.3,0,0,0,.25,1.06l.4.81h3.42l.4-.81a2.43,2.43,0,0,0,.25-1.06V34.45A.47.47,0,0,0,32.92,34Z"/><path class="cls-1" d="M40.47,34c-.95,0-1.76.65-2.4,2a15.69,15.69,0,0,0-1.19,3.86,43.44,43.44,0,0,0-.66,5.5.48.48,0,0,0,.36.48l1.53.38v.57h2.83V34.45A.47.47,0,0,0,40.47,34Z"/><ellipse class="cls-1" cx="47.56" cy="39.17" rx="3.78" ry="5.19"/><circle class="cls-1" cx="62.07" cy="18.42" r="3.77" transform="translate(-2.57 14.75) rotate(-13.28)"/></g></g></svg>