<svg xmlns="http://www.w3.org/2000/svg" viewBox="0 0 401.58 50"><defs><style>.cls-1{fill:#f67599;}</style></defs><title>Recurso 1</title><g id="Capa_2" data-name="Capa 2"><g id="Capa_1-2" data-name="Capa 1"><path class="cls-1" d="M85.35,41q.44-3.43,1.78-9.36c.35-1.51.7-3,1.07-4.39a8.63,8.63,0,0,1-2.93-.23,11.58,11.58,0,0,1-1.18-.66,2.38,2.38,0,0,1-1.15-2.73,3.91,3.91,0,0,1,.37-.89,5.45,5.45,0,0,1,1.9-2.21,28.43,28.43,0,0,1,4.85-.41q.9-3.11,1.78-5.86c.41-1.07.92-2.28,1.55-3.64a21.8,21.8,0,0,1-5.8,0L86,10c-1.44-.71-2-1.61-1.58-2.7a3.3,3.3,0,0,1,.54-.89,6.17,6.17,0,0,1,2.62-2.24,32.3,32.3,0,0,1,6.31-.32,72,72,0,0,0,9.61-.52q5.39-.6,5.56-.66,8.73-1.17,11.86-.4l1.21.29c.38.09.54.41.49,1-.12.32-.82.87-2.1,1.63a63.26,63.26,0,0,1-7.81,2.7Q107.21,9,99.86,9.94A79.29,79.29,0,0,1,98,19.47a2.25,2.25,0,0,0-.09.26l1.53-.17a9.93,9.93,0,0,0,1.26-.14c4.19-.69,7-.77,8.56-.23l.89.34c.27.1.38.41.34.95-.07.31-.58.84-1.52,1.61a36,36,0,0,1-5.63,2.55q-3,.81-6.66,1.47L96,29.81Q93.82,48.89,89.22,49.9T85.35,41Z"/><path class="cls-1" d="M123.7,42.48a21.2,21.2,0,0,1-6.75-.6Q109.23,40,111.43,30.2T128,17.49h.14a22.26,22.26,0,0,1,7.9.23q7.75,1.63,5.83,11.53t-16.14,13.2Q124.62,42.51,123.7,42.48Zm2.47-5.06q6.57-1.86,7.46-7.48t-2.7-6.53a8.21,8.21,0,0,0-3.64-.15h-.06c-4.42,1.1-7,3.5-7.65,7.23s.16,5.93,2.54,6.62a8.17,8.17,0,0,0,3.13.34Z"/><path class="cls-1" d="M155.64,42.48a21.2,21.2,0,0,1-6.75-.6Q141.15,40,143.37,30.2t16.52-12.71H160a22.26,22.26,0,0,1,7.9.23q7.75,1.63,5.83,11.53t-16.14,13.2Q156.56,42.51,155.64,42.48Zm2.47-5.06q6.57-1.86,7.46-7.48t-2.7-6.53a8.21,8.21,0,0,0-3.64-.15h-.06c-4.42,1.1-7,3.5-7.66,7.23s.17,5.93,2.55,6.62a8.17,8.17,0,0,0,3.13.34Z"/><path class="cls-1" d="M209.52,0a2.71,2.71,0,0,1,1.61,2.47l0,.23q-.09.78-7.93,26l-.11,1c.07,1.43,1,2.27,2.87,2.5,2.72.55,4.09,1.11,4.11,1.66.07,0,.1.15.08.38q-.28,2.7-8.87,3.24c-3.37-.95-5.27-2-5.69-3.1Q185.24,40,180.37,39.52l-1.15-.11q-3.83-.37-4.71-4.63a6.42,6.42,0,0,1-.06-1.72q.69-7.07,13.24-13.44,6.75-2.67,10.71-2.07a8.13,8.13,0,0,1,1.09-.32Q202.05.49,209.52,0ZM184.39,31.13l.8.09q3.74.38,9.85-2.7l0-.34a47.74,47.74,0,0,1,2.61-5.4,17.92,17.92,0,0,0-8,2.55,8.29,8.29,0,0,0-3.42,2.88C185.75,28.49,185.11,29.47,184.39,31.13Z"/><path class="cls-1" d="M264.53,2.83c1.92.54,2.87,1.44,2.87,2.72q.28,0,.45,1.74,0,2.34-7.47,10.63,0,.38-19.82,20.13h.16a45,45,0,0,1,6.45-.72h3a92.76,92.76,0,0,1,11.37.86,33.73,33.73,0,0,0,13.45-1c1.35.31,2,.89,2,1.73v.42a18,18,0,0,1-6.33,4q-2.46,1.28-10.78,2.29h-.29q-3.3.69-14.19.7a52.06,52.06,0,0,0-18.41,2.88,7.32,7.32,0,0,1-1.43.15h-.28q-2.91,0-3.89-3.16v-.88q0-5.19,5-8.77a320.68,320.68,0,0,1,25.83-23.86,20.91,20.91,0,0,0,3.16-2.6,58.44,58.44,0,0,1-11.36,1.46h-2.88c-3.73,0-6.13-1.11-7.18-3.32a2.27,2.27,0,0,1-.28-1c0-.85.71-1.9,2.15-3.16l1-.29q4.38.29,6.46.29a102.66,102.66,0,0,1,15.12-1Z"/><path class="cls-1" d="M278.48,21.71h.17c.67,0,1.09.71,1.27,2.13a9.23,9.23,0,0,1,.17,1.44q0,4.37-4.94,13.47l-1.52,3.64a7.77,7.77,0,0,1,.08.92v.09c0,.69-.56,1-1.69,1q-2.5,0-3.16-5.37,0-4,4.16-10.45,4.37-5.55,4.68-6.64A1.2,1.2,0,0,1,278.48,21.71Zm7.38-15.56h.86a.86.86,0,0,1,.52.77V7q-.09,1.17-6,8.93c-.9,1.13-1.64,1.7-2.22,1.7,0,.11-.42.17-1.26.17-1.24-.21-1.87-.75-1.87-1.61V14.82c0-1.07,1-2.78,3.08-5.11a29,29,0,0,1,5.6-3.05A2.65,2.65,0,0,0,285.86,6.15Z"/><path class="cls-1" d="M284.22,42.08c-1.15-.35-1.71-.93-1.69-1.75l0-.92q0-1.75,1.35-10.54a62.85,62.85,0,0,0,.38-6.78l.06-2.07a9.39,9.39,0,0,1-.44-1.72v-.23c0-.12.4-.49,1.18-1.12q3.07.77,4.08,2.61a8.85,8.85,0,0,1,3,7.3,42.26,42.26,0,0,1,6-6.44,16.53,16.53,0,0,1,7.56-4c0-.21.61-.36,1.83-.43q2,.2,4.66,2.64a9.15,9.15,0,0,1,.6,3.79c0,1.72-1.11,5.31-3.22,10.74l0,1.38q0,1.29,2.58,2.7l.34.46V38c0,.69-.91,1.17-2.67,1.44a6.57,6.57,0,0,1-1.38.08c-2.56-.05-4.23-.94-5-2.64a11,11,0,0,1-1.32-3.25,22.92,22.92,0,0,1,1.66-8.7h-.11q-.84,0-10.6,7.27a25.33,25.33,0,0,0-5.2,7.12c-1.28,1.73-2.11,2.59-2.47,2.59A3.07,3.07,0,0,1,284.22,42.08Z"/><path class="cls-1" d="M348.24,0a2.69,2.69,0,0,1,1.61,2.47l0,.23q-.09.78-7.93,26l-.11,1c.08,1.43,1,2.27,2.87,2.5,2.72.55,4.09,1.11,4.11,1.66.08,0,.1.15.09.38-.2,1.8-3.15,2.88-8.88,3.24-3.37-.95-5.27-2-5.69-3.1Q324,40,319.09,39.52l-1.15-.11q-3.82-.37-4.71-4.63a6.87,6.87,0,0,1-.06-1.72q.69-7.07,13.24-13.44,6.75-2.67,10.72-2.07a7.72,7.72,0,0,1,1.09-.32Q340.77.49,348.24,0ZM323.11,31.13l.8.09q3.73.38,9.86-2.7l0-.34a47.74,47.74,0,0,1,2.61-5.4,18,18,0,0,0-8,2.55A8.26,8.26,0,0,0,325,28.21C324.47,28.49,323.84,29.47,323.11,31.13Z"/><path class="cls-1" d="M364.61,17.49c5.12-.07,7.92.61,8.41,2.07a7.59,7.59,0,0,1,0,4.62,13.58,13.58,0,0,1-3.84,5.43q-3.1,3-12,4.48.11,4.14,7,2.13c4.59-1.34,7.61-2.16,9.08-2.47s2.07.14,1.82,1.33S372.44,38,368,40.31a20.16,20.16,0,0,1-14.39,1.58Q345.89,40,348.1,30.2T364.61,17.49Zm-7.84,11.92.38.95q11.34-4.14,10.15-6.68T362.16,23A10.16,10.16,0,0,0,356.77,29.41Z"/><path class="cls-1" d="M375,44.15c-1.16-.27-1.77-.82-1.81-1.64l0-.92q-.06-1.76,2.41-13c.09-1.4.19-2.86.3-4.4a31.43,31.43,0,0,0,.1-3.54,2.79,2.79,0,0,0-.53-1.77,1.62,1.62,0,0,1-.5-.83v-.23c0-.1.37-.49,1.12-1.18a10.09,10.09,0,0,1,5.25,2.7,8.3,8.3,0,0,1,2.42,5.51c1.62-2.71,4.57-5.39,8.83-8s7.12-3.12,8.59-1.49-.49,4-5.86,7.24-8.84,6.35-10.39,9.47l-4.48,9c-1.17,1.8-1.94,2.71-2.32,2.73C376.62,44,375.59,44.07,375,44.15Z"/><path class="cls-1" d="M64.65,31.14H57l-.22,0c0,.09,0,.16,0,.22A16.85,16.85,0,0,1,35.15,45.83,16.81,16.81,0,0,1,23.27,31.51c0-.23-.09-.3-.33-.3H6.06A7.18,7.18,0,0,1,0,36.79Q0,40.39.38,44c.08.9.23,1.79.38,2.67a1.77,1.77,0,0,0,1.61,1.57c.2,0,.39.09.59.14H58.22l.34-.1A17.41,17.41,0,0,0,62.68,47a5.06,5.06,0,0,0,.9-.53,1.59,1.59,0,0,0,.68-1.12c.06-.65.15-1.29.18-1.93q.18-4.2.34-8.41c0-.43,0-.86.07-1.29v-2.6Z"/><path class="cls-1" d="M15.88,22.17a7,7,0,0,1,.2,1.66,7.43,7.43,0,0,1-1,3.69h7.77c.53,0,.43.07.51-.43A16.87,16.87,0,0,1,38.6,12.94a16.05,16.05,0,0,1,9.55,2,16.54,16.54,0,0,1,8.48,12.07c0,.24.13.33.39.33,2.48,0,5,0,7.45,0h.3c0-.13,0-.23,0-.33,0-.6,0-1.2-.07-1.81A59.84,59.84,0,0,0,64,18a14.94,14.94,0,0,0-1-3.54,2.91,2.91,0,0,0-.87-1.15,9.54,9.54,0,0,0-3-1.7c-1.14-.38-2.31-.7-3.47-1a5.48,5.48,0,0,1-4.28-4.94,9.87,9.87,0,0,1-.07-1.22,1.31,1.31,0,0,0-.6-1.14,6.1,6.1,0,0,0-.93-.52A10.43,10.43,0,0,0,47,2.09a49.67,49.67,0,0,0-11.75-.18A15.83,15.83,0,0,0,32,2.53,11.29,11.29,0,0,0,30.92,3a1.58,1.58,0,0,0-1,1.45A6,6,0,0,1,28.1,8.48a7.14,7.14,0,0,1-3.29,1.71,18.46,18.46,0,0,1-3.47.4c-.35,0-.7,0-1,0a.69.69,0,0,1-.22,0,7.69,7.69,0,0,1-4.2,11.6ZM57.69,14a2.12,2.12,0,1,1-2.13,2.1A2.13,2.13,0,0,1,57.69,14Z"/><path class="cls-1" d="M40.05,15.67a14.07,14.07,0,0,0-9.27,24.67L31,32.06h2.49l.28,10.28a14.17,14.17,0,0,0,4.34,1.35l.29-8.34h2.49l.29,8.43a14.17,14.17,0,0,0,3.92-.89l.27-9.84a3.33,3.33,0,0,0,2.52,0l.23,8.24a14.08,14.08,0,0,0-8.07-25.62Zm-5.75,14a2.08,2.08,0,0,1-.22.92l-.35.7h-3l-.35-.7a2,2,0,0,1-.22-.92V23.84a.41.41,0,1,1,.82,0V28h.82V23.84a.42.42,0,0,1,.83,0V28h.82V23.84a.41.41,0,1,1,.82,0Zm6.58,4.91H38.41V34l-1.33-.33a.41.41,0,0,1-.31-.42,35.88,35.88,0,0,1,.57-4.79,13.09,13.09,0,0,1,1-3.35c.57-1.13,1.27-1.71,2.1-1.71a.42.42,0,0,1,.41.41Zm5.75-2.05c-1.82,0-3.29-2-3.29-4.53s1.47-4.52,3.29-4.52,3.29,2,3.29,4.52S48.45,32.48,46.63,32.48Z"/></g></g></svg>